<svg width="206" height="33" viewBox="0 0 206 33" fill="none" xmlns="http://www.w3.org/2000/svg">
<path d="M33.6301 12.4184H24.6098C22.845 5.45709 16.4719 0.260594 8.92228 0.260594H3.92188C1.76485 0.260594 0 2.02544 0 4.18248V8.98678C0 11.1438 1.76485 12.9087 3.92188 12.9087C6.07892 12.9087 7.84376 11.1438 7.84376 8.98678V8.10436H8.82423C13.3344 8.10436 17.0602 11.8301 17.0602 16.3403C17.0602 20.8505 13.3344 24.5763 8.82423 24.5763H7.84376V24.086C7.84376 21.929 6.07892 20.1641 3.92188 20.1641C1.76485 20.1641 0 21.929 0 24.086V28.4981C0 30.6552 1.76485 32.42 3.92188 32.42H8.92228C16.4719 32.42 22.845 27.2235 24.6098 20.2622H33.6301C35.7872 20.2622 36.8657 18.4973 36.8657 16.3403C36.9637 14.1833 35.8852 12.4184 33.6301 12.4184Z" fill="#006838"/>
<path d="M62.0638 16.3403C62.0638 25.2626 54.8083 32.5181 45.886 32.5181C36.9637 32.5181 29.7083 25.2626 29.7083 16.3403C29.7083 7.41803 36.9637 0.162547 45.886 0.162547C54.8083 0.162547 62.0638 7.41803 62.0638 16.3403ZM37.6501 16.3403C37.6501 20.8505 41.3759 24.5763 45.886 24.5763C50.3962 24.5763 54.122 20.8505 54.122 16.3403C54.122 11.8301 50.3962 8.10436 45.886 8.10436C41.3759 8.10436 37.6501 11.8301 37.6501 16.3403Z" fill="#F7941D"/>
<path d="M81.1647 14.3342H75.4526L74.3748 17.1364C74.2671 17.4597 74.0515 17.6753 73.8359 17.8909C73.6204 18.1064 73.4048 18.2142 73.0815 18.322C72.7582 18.5375 72.5426 18.5375 72.2193 18.5375C71.896 18.5375 71.5726 18.4297 71.3571 18.322C71.0338 18.2142 70.8182 17.9986 70.6027 17.7831C70.3871 17.5675 70.2793 17.352 70.1715 17.0286C70.0638 16.9209 70.0638 16.5975 70.0638 16.2742C70.0638 15.9509 70.1716 15.7353 70.2793 15.412L76.3148 1.50887C76.5303 1.18554 76.8537 0.754434 77.177 0.538881C77.5003 0.323329 77.9314 0.215552 78.3625 0.215552C78.7936 0.215552 79.2248 0.323329 79.5481 0.538881C79.8714 0.754434 80.1947 1.07776 80.3025 1.50887L86.2302 15.412C86.338 15.7353 86.4458 15.9509 86.4458 16.2742C86.4458 16.5975 86.4458 16.8131 86.338 17.1364C86.2302 17.352 86.1224 17.6753 85.9069 17.8909C85.6913 18.1064 85.4758 18.322 85.1524 18.4297C84.8291 18.5375 84.6136 18.6453 84.2902 18.6453C83.9669 18.6453 83.7514 18.6453 83.428 18.5375C83.2125 18.4297 82.8891 18.322 82.6736 18.1064C82.458 17.8909 82.2425 17.6753 82.1347 17.352L81.1647 14.3342ZM77.177 9.91541H79.3325L78.2548 7.22101L77.177 9.91541Z" fill="#036E3D"/>
<path d="M90.8646 18.5375C90.5413 18.5375 90.3257 18.4297 90.0024 18.322C89.7868 18.2142 89.4635 18.1064 89.2479 17.8909C89.0324 17.6753 88.9246 17.4597 88.8168 17.2442C88.7091 17.0286 88.6013 16.7053 88.6013 16.382V2.37108C88.6013 2.04775 88.7091 1.8322 88.8168 1.50887C88.9246 1.18554 89.1402 0.969986 89.2479 0.86221C89.4635 0.646657 89.679 0.538881 90.0024 0.431105C90.3257 0.323329 90.5413 0.215552 90.8646 0.215552H96.0378C96.7923 0.215552 97.5467 0.323329 98.1934 0.646657C98.84 0.969986 99.3789 1.29331 99.9178 1.8322C100.457 2.37108 100.78 2.90996 101.103 3.55662C101.427 4.20327 101.534 4.95771 101.534 5.71214C101.534 6.3588 101.427 6.89768 101.211 7.43656C100.996 7.97544 100.78 8.51432 100.349 8.94543C100.888 9.48431 101.319 10.0232 101.534 10.7776C101.858 11.4243 101.966 12.1787 101.966 12.9331C101.966 13.6876 101.858 14.442 101.534 15.0887C101.211 15.7353 100.78 16.382 100.349 16.9209C99.81 17.4597 99.2711 17.8909 98.5167 18.1064C97.87 18.4297 97.1156 18.5375 96.2534 18.5375H90.8646ZM93.1279 4.63438V7.22101H95.8223C95.9301 7.22101 96.1456 7.11323 96.2534 7.11323C96.3612 7.00545 96.5767 6.89768 96.6845 6.7899C96.7923 6.68213 96.9001 6.46657 97.0078 6.3588C97.0078 6.14324 97.0078 5.92769 97.0078 5.81992C97.0078 5.60436 97.0078 5.49659 96.9001 5.38881C96.7923 5.28103 96.6845 5.17326 96.5767 5.06548C96.469 4.95771 96.3612 4.84993 96.1456 4.84993C96.0378 4.84993 95.8223 4.74215 95.7145 4.74215H93.1279V4.63438ZM93.1279 11.101V14.0109H96.1456C96.3612 14.0109 96.4689 14.0109 96.6845 13.9031C96.9001 13.7954 97.0078 13.6876 97.1156 13.5798C97.2234 13.472 97.3312 13.2565 97.4389 13.0409C97.5467 12.8254 97.5467 12.7176 97.5467 12.502C97.5467 12.2865 97.5467 12.1787 97.4389 11.9632C97.3312 11.7476 97.2234 11.6398 97.1156 11.5321C97.0078 11.4243 96.7923 11.3165 96.6845 11.2087C96.4689 11.101 96.3612 11.101 96.1456 11.101H93.1279Z" fill="#036E3D"/>
<path d="M108.432 17.6753C108.324 17.7831 108.217 17.8909 108.109 17.9986C107.893 18.2142 107.678 18.322 107.462 18.4297C107.247 18.5375 106.923 18.5375 106.708 18.5375C106.492 18.5375 106.169 18.5375 106.061 18.4297C105.63 18.322 105.307 17.9986 104.983 17.6753C104.66 17.352 104.552 16.9209 104.552 16.382V2.37108C104.552 2.04775 104.66 1.8322 104.768 1.50887C104.875 1.29331 105.091 0.969986 105.199 0.86221C105.414 0.646657 105.63 0.538881 105.845 0.431105C106.061 0.323329 106.277 0.215552 106.6 0.215552C106.923 0.215552 107.247 0.323329 107.462 0.431105C107.785 0.538881 108.001 0.646657 108.217 0.86221C108.432 1.07776 108.54 1.29331 108.755 1.50887C108.755 1.8322 108.863 2.04775 108.863 2.37108V9.91541L115.222 1.29331C115.33 1.18554 115.33 1.07776 115.438 0.969986L115.545 0.86221C115.761 0.646657 115.976 0.538881 116.192 0.431105C116.408 0.323329 116.623 0.215552 116.946 0.215552H117.054C117.378 0.215552 117.593 0.323329 117.916 0.431105C118.132 0.538881 118.455 0.646657 118.671 0.86221C118.886 1.07776 118.994 1.29331 119.102 1.50887C119.21 1.72442 119.318 2.04775 119.318 2.37108V16.382C119.318 16.7053 119.21 16.9209 119.102 17.2442C118.994 17.4597 118.779 17.7831 118.671 17.8909C118.563 17.9986 118.24 18.2142 117.916 18.322C117.701 18.5375 117.378 18.5375 117.162 18.5375C116.839 18.5375 116.515 18.4297 116.3 18.322C115.976 18.2142 115.761 18.1064 115.545 17.8909C115.33 17.6753 115.222 17.4597 115.114 17.2442C115.006 17.0286 114.899 16.7053 114.899 16.382V8.94543L108.432 17.6753Z" fill="#036E3D"/>
<path d="M142.705 18.5375C142.382 18.5375 142.166 18.4297 141.951 18.322C141.735 18.2142 141.519 18.1064 141.304 17.8909C141.088 17.6753 140.981 17.4597 140.873 17.2442C140.765 17.0286 140.765 16.7053 140.765 16.382V2.37108C140.765 2.04775 140.873 1.8322 140.981 1.50887C141.088 1.18554 141.304 0.969986 141.412 0.754434C141.627 0.538881 141.843 0.431105 142.058 0.323329C142.274 0.215552 142.597 0.215552 142.921 0.215552H149.71C150.034 0.215552 150.249 0.323329 150.573 0.431105C150.896 0.538881 151.111 0.754434 151.219 0.86221C151.435 1.07776 151.543 1.29331 151.65 1.61664C151.866 1.8322 151.974 2.15552 151.974 2.37108C151.974 2.69441 151.866 3.01773 151.758 3.23329C151.65 3.55662 151.543 3.77217 151.327 3.98772C151.111 4.20327 150.896 4.31105 150.68 4.41883C150.465 4.5266 150.142 4.63438 149.818 4.63438H145.184V7.22101H148.309C148.633 7.22101 148.848 7.22101 149.172 7.32878C149.387 7.43656 149.71 7.54434 149.926 7.75989C150.141 7.97544 150.249 8.19099 150.357 8.51432C150.465 8.83765 150.573 9.0532 150.573 9.37653C150.573 9.69986 150.465 9.91541 150.357 10.2387C150.249 10.5621 150.034 10.7776 149.818 10.9932C149.603 11.2087 149.387 11.3165 149.064 11.4243C148.848 11.5321 148.525 11.5321 148.202 11.5321H145.076V14.1187H149.71C150.034 14.1187 150.249 14.2265 150.573 14.3342C150.788 14.442 151.111 14.6576 151.219 14.7653C151.435 14.9809 151.543 15.1964 151.65 15.5198C151.758 15.8431 151.866 16.0587 151.866 16.382C151.866 16.7053 151.758 16.9209 151.65 17.2442C151.543 17.4597 151.435 17.7831 151.219 17.9986C151.004 18.2142 150.788 18.322 150.573 18.4297C150.357 18.5375 150.034 18.5375 149.71 18.5375H142.705Z" fill="#036E3D"/>
<path d="M158.764 7.22101H164.368V2.37108C164.368 2.04775 164.476 1.8322 164.584 1.50887C164.691 1.29331 164.907 0.969986 165.122 0.86221C165.338 0.754434 165.554 0.538881 165.877 0.431105C165.985 0.323329 166.308 0.215552 166.631 0.215552C166.955 0.215552 167.17 0.323329 167.493 0.431105C167.709 0.538881 168.032 0.646657 168.14 0.86221C168.356 1.07776 168.463 1.29331 168.571 1.50887C168.679 1.72442 168.787 2.04775 168.787 2.37108V16.382C168.787 16.7053 168.679 16.9209 168.571 17.2442C168.463 17.4597 168.248 17.7831 168.14 17.8909C167.925 18.1064 167.709 18.2142 167.386 18.322C167.17 18.5375 166.847 18.5375 166.523 18.5375C166.2 18.5375 165.877 18.4297 165.661 18.322C165.338 18.2142 165.122 18.1064 164.907 17.8909C164.691 17.6753 164.584 17.4597 164.476 17.2442C164.368 17.0286 164.26 16.7053 164.26 16.382V11.6398H158.656V16.382C158.656 16.7053 158.548 16.9209 158.44 17.2442C158.333 17.4597 158.117 17.7831 158.009 17.8909C157.794 18.1064 157.578 18.2142 157.255 18.322C157.147 18.5375 156.824 18.5375 156.608 18.5375C156.393 18.5375 156.069 18.4297 155.746 18.322C155.53 18.2142 155.207 18.1064 154.991 17.8909C154.776 17.6753 154.668 17.4597 154.56 17.2442C154.453 17.0286 154.345 16.7053 154.345 16.382V2.37108C154.345 2.04775 154.453 1.8322 154.56 1.50887C154.668 1.29331 154.884 0.969986 154.991 0.86221C155.207 0.646657 155.423 0.538881 155.746 0.431105C155.961 0.323329 156.285 0.215552 156.608 0.215552C156.931 0.215552 157.255 0.323329 157.47 0.431105C157.794 0.538881 158.009 0.646657 158.225 0.86221C158.333 1.07776 158.44 1.29331 158.548 1.50887C158.656 1.72442 158.764 2.04775 158.764 2.37108V7.22101Z" fill="#036E3D"/>
<path d="M176.87 7.22101H182.474V2.37108C182.474 2.04775 182.582 1.8322 182.69 1.50887C182.798 1.29331 183.013 0.969986 183.229 0.86221C183.444 0.754434 183.66 0.538881 183.983 0.431105C184.307 0.323329 184.522 0.215552 184.845 0.215552C185.169 0.215552 185.384 0.323329 185.708 0.431105C185.923 0.538881 186.247 0.646657 186.354 0.86221C186.462 1.07776 186.678 1.29331 186.785 1.50887C186.893 1.72442 187.001 2.04775 187.001 2.37108V16.382C187.001 16.7053 186.893 16.9209 186.785 17.2442C186.678 17.4597 186.462 17.7831 186.354 17.8909C186.139 18.1064 185.923 18.2142 185.6 18.322C185.384 18.4297 185.061 18.5375 184.738 18.5375C184.414 18.5375 184.091 18.4297 183.875 18.322C183.552 18.2142 183.337 18.1064 183.121 17.8909C182.905 17.6753 182.798 17.4597 182.69 17.2442C182.582 17.0286 182.474 16.7053 182.474 16.382V11.6398H176.87V16.382C176.87 16.7053 176.762 16.9209 176.654 17.2442C176.547 17.4597 176.331 17.7831 176.223 17.8909C176.008 18.1064 175.792 18.2142 175.469 18.322C175.253 18.5375 175.038 18.5375 174.714 18.5375C174.391 18.5375 174.176 18.4297 173.852 18.322C173.637 18.2142 173.313 18.1064 173.098 17.8909C172.882 17.6753 172.775 17.4597 172.667 17.2442C172.559 16.9209 172.451 16.7053 172.451 16.382V2.37108C172.451 2.04775 172.559 1.8322 172.667 1.50887C172.775 1.29331 172.99 0.969986 173.098 0.86221C173.206 0.754434 173.529 0.538881 173.852 0.431105C174.068 0.323329 174.391 0.215552 174.714 0.215552C175.038 0.215552 175.361 0.323329 175.577 0.431105C175.9 0.538881 176.116 0.646657 176.331 0.86221C176.439 1.07776 176.654 1.29331 176.762 1.50887C176.87 1.72442 176.978 2.04775 176.978 2.37108V7.22101H176.87Z" fill="#036E3D"/>
<path d="M200.15 14.3342H194.438L193.36 17.1364C193.252 17.4597 193.036 17.6753 192.821 17.8909C192.605 18.1064 192.39 18.2142 192.066 18.322C191.743 18.4297 191.528 18.4297 191.204 18.4297C190.881 18.4297 190.558 18.322 190.342 18.2142C190.019 18.1064 189.803 17.8909 189.588 17.6753C189.372 17.4597 189.264 17.2442 189.157 16.9209C189.049 16.7053 189.049 16.382 189.049 16.0587C189.049 15.7353 189.157 15.5198 189.264 15.1964L195.3 1.29331C195.515 0.86221 195.731 0.538881 196.162 0.323329C196.485 0.107776 196.916 0 197.347 0C197.779 0 198.21 0.107776 198.533 0.323329C198.856 0.538881 199.18 0.86221 199.287 1.29331L205.215 15.1964C205.323 15.5198 205.431 15.7353 205.431 16.0587C205.431 16.382 205.431 16.5975 205.323 16.9209C205.215 17.1364 205.107 17.4597 204.892 17.6753C204.676 17.8909 204.461 18.1064 204.137 18.2142C203.814 18.322 203.599 18.4297 203.275 18.4297C202.952 18.4297 202.736 18.4297 202.413 18.322C202.197 18.2142 201.874 18.1064 201.659 17.8909C201.443 17.6753 201.227 17.4597 201.12 17.1364L200.15 14.3342ZM196.162 9.91541H198.317L197.24 7.22101L196.162 9.91541Z" fill="#036E3D"/>
<path d="M137.101 14.0109V2.47885C137.101 2.15552 136.993 1.8322 136.885 1.61664C136.777 1.29331 136.562 1.07776 136.346 0.86221C136.131 0.646657 135.915 0.538881 135.592 0.323329C135.376 0.323329 135.053 0.215552 134.73 0.215552C134.406 0.215552 134.083 0.323329 133.867 0.431105C133.652 0.538881 133.328 0.754434 133.221 0.969986C133.113 1.18554 132.897 1.40109 132.79 1.72442C132.682 2.04775 132.682 2.2633 132.682 2.58663V14.0109H126.97V2.47885C126.97 2.15552 126.97 1.8322 126.862 1.61664C126.754 1.29331 126.646 1.07776 126.431 0.86221C126.215 0.646657 126 0.538881 125.784 0.323329C125.461 0.323329 125.137 0.215552 124.814 0.215552C124.491 0.215552 124.167 0.323329 123.952 0.431105C123.629 0.538881 123.413 0.754434 123.197 0.969986C122.982 1.18554 122.874 1.40109 122.766 1.61664C122.659 1.93997 122.551 2.15552 122.551 2.47885V16.2742C122.551 16.5975 122.659 16.9209 122.766 17.1364C122.874 17.4597 123.09 17.6753 123.305 17.8909C123.521 18.1064 123.736 18.2142 124.06 18.322C124.383 18.4297 124.599 18.5375 124.922 18.5375H137.532C138.825 18.5375 139.795 17.5675 139.795 16.2742C139.795 14.9809 138.825 14.0109 137.532 14.0109H137.101Z" fill="#036E3D"/>
<path d="M76.7247 25.2627C76.5098 25.2627 76.4024 25.2627 76.1875 25.3701C76.0801 25.4776 75.9726 25.585 75.8652 25.7999L73.824 29.5601L71.7827 25.7999C71.6753 25.585 71.5679 25.4776 71.4604 25.3701C71.353 25.2627 71.1381 25.2627 70.9232 25.2627C70.6009 25.2627 70.3861 25.2627 70.2786 25.4776C70.1712 25.585 70.0638 25.7999 70.0638 26.0147V31.8162C70.0638 32.031 70.1712 32.2459 70.2786 32.4608C70.3861 32.5682 70.6009 32.6757 70.9232 32.6757C71.4604 32.6757 71.7827 32.3534 71.7827 31.8162V28.5932L73.1794 31.1716C73.1794 31.279 73.2868 31.3864 73.3942 31.4939C73.5017 31.6013 73.6091 31.6013 73.824 31.6013C74.0388 31.6013 74.1463 31.6013 74.2537 31.4939C74.3611 31.3864 74.4686 31.279 74.4686 31.1716L75.8652 28.5932V31.8162C75.8652 32.3534 76.1875 32.6757 76.7247 32.6757C77.2619 32.6757 77.5842 32.3534 77.5842 31.8162V26.0147C77.5842 25.7999 77.4767 25.585 77.3693 25.3701C77.1544 25.2627 77.047 25.2627 76.7247 25.2627Z" fill="#F7941D"/>
<path d="M84.1376 26.7668C84.5674 26.7668 84.8897 26.5519 84.8897 26.0147C84.8897 25.585 84.6748 25.2627 84.1376 25.2627H80.6997C80.0551 25.2627 79.7328 25.585 79.7328 26.2296V31.6013C79.7328 32.2459 80.0551 32.5682 80.6997 32.5682H84.1376C84.5674 32.5682 84.8897 32.3534 84.8897 31.8162C84.8897 31.3864 84.6748 31.0641 84.1376 31.0641H81.4518V29.5601H83.9228C84.3525 29.5601 84.6748 29.3452 84.6748 28.808C84.6748 28.2709 84.4599 28.056 83.9228 28.056H81.4518V26.7668H84.1376Z" fill="#F7941D"/>
<path d="M101.435 25.2627C101.22 25.2627 101.112 25.2627 100.897 25.3701C100.79 25.4776 100.682 25.585 100.468 25.6924L97.5669 29.5601V26.1222C97.5669 25.585 97.2446 25.2627 96.7074 25.2627C96.1703 25.2627 95.848 25.4776 95.848 26.1222V31.7087C95.848 32.0311 95.9554 32.2459 96.0628 32.3534C96.1703 32.4608 96.3851 32.5682 96.6 32.5682C96.8149 32.5682 96.9223 32.5682 97.1372 32.4608C97.2446 32.3534 97.352 32.2459 97.4595 32.1385L100.468 28.2709V31.8162C100.468 32.3534 100.79 32.6757 101.327 32.6757C101.864 32.6757 102.187 32.3534 102.187 31.8162V26.0147C102.187 25.7999 102.079 25.585 101.972 25.4776C101.864 25.2627 101.649 25.2627 101.435 25.2627Z" fill="#F7941D"/>
<path d="M119.161 25.2627C118.946 25.2627 118.839 25.2627 118.624 25.3701C118.517 25.4776 118.409 25.585 118.194 25.6924L115.294 29.5601V26.1222C115.294 25.585 114.971 25.2627 114.434 25.2627C113.897 25.2627 113.575 25.585 113.575 26.1222V31.7087C113.575 32.0311 113.682 32.2459 113.789 32.3534C113.897 32.4608 114.112 32.5682 114.327 32.5682C114.541 32.5682 114.649 32.5682 114.864 32.4608C114.971 32.3534 115.079 32.2459 115.186 32.1385L118.194 28.2709V31.8162C118.194 32.3534 118.517 32.6757 119.054 32.6757C119.591 32.6757 119.913 32.3534 119.913 31.8162V26.0147C119.913 25.7999 119.806 25.585 119.698 25.4776C119.591 25.2627 119.376 25.2627 119.161 25.2627Z" fill="#F7941D"/>
<path d="M127.756 25.2627C127.219 25.2627 126.896 25.585 126.896 26.1222V28.1634H123.888V26.1222C123.888 25.4776 123.566 25.2627 123.029 25.2627C122.492 25.2627 122.169 25.585 122.169 26.1222V31.7087C122.169 32.0311 122.277 32.2459 122.384 32.3534C122.492 32.5682 122.706 32.5682 123.029 32.5682C123.566 32.5682 123.888 32.2459 123.888 31.7087V29.5601H126.896V31.7087C126.896 32.0311 127.004 32.2459 127.111 32.3534C127.219 32.5682 127.434 32.5682 127.756 32.5682C128.078 32.5682 128.293 32.4608 128.4 32.3534C128.508 32.2459 128.615 31.9236 128.615 31.7087V26.1222C128.615 25.585 128.4 25.2627 127.756 25.2627Z" fill="#F7941D"/>
<path d="M136.351 30.6344C136.136 30.527 135.921 30.6344 135.706 30.7418C135.491 30.8493 135.276 30.9567 135.061 30.9567C134.847 30.9567 134.632 31.0641 134.417 31.0641C133.772 31.0641 133.342 30.8493 133.02 30.527C132.698 30.2047 132.483 29.6675 132.483 28.9155C132.483 28.1634 132.698 27.7337 133.02 27.3039C133.342 26.9816 133.772 26.7668 134.417 26.7668C134.632 26.7668 134.847 26.7668 135.061 26.8742C135.276 26.8742 135.491 26.9816 135.706 27.0891C135.921 27.1965 136.136 27.1965 136.351 27.1965C136.458 27.0891 136.673 26.9816 136.673 26.7668C136.78 26.5519 136.78 26.337 136.673 26.2296C136.565 26.0147 136.458 25.7999 136.243 25.6924C136.028 25.585 135.706 25.3701 135.276 25.3701C134.954 25.2627 134.524 25.2627 134.202 25.2627C133.45 25.2627 132.805 25.3701 132.161 25.6924C131.624 26.0147 131.194 26.4445 130.871 26.9816C130.549 27.5188 130.442 28.1634 130.442 28.9155C130.442 29.6675 130.549 30.3121 130.871 30.8493C131.194 31.3864 131.624 31.8162 132.161 32.1385C132.698 32.4608 133.342 32.5682 134.202 32.5682C134.524 32.5682 134.954 32.5682 135.276 32.4608C135.599 32.3534 135.921 32.2459 136.243 32.0311C136.458 31.9236 136.565 31.7087 136.673 31.4939C136.673 31.279 136.673 31.0641 136.565 30.9567C136.673 30.8493 136.458 30.7418 136.351 30.6344Z" fill="#F7941D"/>
<path d="M143.871 29.8824C143.549 29.2378 143.226 28.808 142.689 28.5932L143.978 26.5519C144.193 26.337 144.301 26.1222 144.193 25.9073C144.193 25.6924 144.086 25.585 143.978 25.4776C143.871 25.3701 143.764 25.2627 143.656 25.2627C143.441 25.2627 143.334 25.2627 143.119 25.2627C142.904 25.3701 142.797 25.4776 142.689 25.6924L141.078 28.2709H140.433V26.1222C140.433 25.585 140.111 25.2627 139.574 25.2627C139.251 25.2627 139.036 25.3701 138.929 25.4776C138.822 25.585 138.714 25.9073 138.714 26.1222V31.7087C138.714 32.0311 138.822 32.2459 138.929 32.3534C139.036 32.5682 139.251 32.5682 139.574 32.5682C139.896 32.5682 140.111 32.4608 140.218 32.3534C140.326 32.2459 140.433 31.9236 140.433 31.7087V29.6675H141.078C141.4 29.6675 141.615 29.7749 141.83 29.8824C142.045 29.9898 142.152 30.2047 142.259 30.527L143.012 32.1385C143.119 32.3534 143.226 32.4608 143.441 32.5682C143.656 32.6757 143.764 32.6757 143.978 32.6757C144.193 32.6757 144.301 32.5682 144.408 32.4608C144.516 32.3534 144.623 32.2459 144.73 32.0311C144.73 31.8162 144.73 31.6013 144.623 31.3864L143.871 29.8824Z" fill="#F7941D"/>
<path d="M152.143 25.2627C151.929 25.2627 151.821 25.2627 151.606 25.3701C151.499 25.4776 151.391 25.585 151.177 25.6924L148.276 29.5601V26.1222C148.276 25.4776 147.953 25.2627 147.416 25.2627C146.879 25.2627 146.557 25.585 146.557 26.1222V31.7087C146.557 32.0311 146.664 32.2459 146.772 32.3534C146.879 32.4608 147.094 32.5682 147.309 32.5682C147.524 32.5682 147.631 32.5682 147.846 32.4608C147.953 32.3534 148.061 32.2459 148.168 32.1385L151.177 28.2709V31.8162C151.177 32.3534 151.499 32.6757 152.036 32.6757C152.573 32.6757 152.895 32.3534 152.895 31.8162V26.0147C152.895 25.7999 152.788 25.585 152.681 25.4776C152.573 25.2627 152.358 25.2627 152.143 25.2627Z" fill="#F7941D"/>
<path d="M160.631 25.2627C160.416 25.2627 160.308 25.2627 160.094 25.3701C159.986 25.4776 159.879 25.585 159.664 25.6924L156.763 29.5601V26.1222C156.763 25.585 156.441 25.2627 155.904 25.2627C155.366 25.2627 155.044 25.585 155.044 26.1222V31.7087C155.044 32.0311 155.152 32.2459 155.259 32.3534C155.366 32.4608 155.581 32.5682 155.796 32.5682C156.011 32.5682 156.118 32.5682 156.333 32.4608C156.441 32.3534 156.548 32.2459 156.656 32.1385L159.664 28.2709V31.8162C159.664 32.3534 159.986 32.6757 160.523 32.6757C161.06 32.6757 161.383 32.3534 161.383 31.8162V26.0147C161.383 25.7999 161.275 25.585 161.168 25.4776C161.06 25.2627 160.846 25.2627 160.631 25.2627Z" fill="#F7941D"/>
<path d="M180.936 26.7668C181.365 26.7668 181.688 26.5519 181.688 26.0147C181.688 25.585 181.473 25.2627 180.936 25.2627H177.498C176.853 25.2627 176.531 25.585 176.531 26.2296V31.6013C176.531 32.2459 176.853 32.5682 177.498 32.5682H180.936C181.365 32.5682 181.688 32.3534 181.688 31.8162C181.688 31.3864 181.473 31.0641 180.936 31.0641H178.25V29.5601H180.721C181.151 29.5601 181.473 29.3452 181.473 28.808C181.473 28.2709 181.258 28.056 180.721 28.056H178.25V26.7668H180.936Z" fill="#F7941D"/>
<path d="M189.316 25.2627C188.778 25.2627 188.456 25.585 188.456 26.1222V28.1634H185.448V26.1222C185.448 25.4776 185.126 25.2627 184.589 25.2627C184.051 25.2627 183.729 25.585 183.729 26.1222V31.7087C183.729 32.0311 183.836 32.2459 183.944 32.3534C184.051 32.5682 184.266 32.5682 184.589 32.5682C185.126 32.5682 185.448 32.2459 185.448 31.7087V29.5601H188.456V31.7087C188.456 32.0311 188.564 32.2459 188.671 32.3534C188.778 32.5682 188.993 32.5682 189.316 32.5682C189.638 32.5682 189.853 32.4608 189.96 32.3534C190.068 32.2459 190.175 31.9236 190.175 31.7087V26.1222C190.175 25.585 189.853 25.2627 189.316 25.2627Z" fill="#F7941D"/>
<path d="M197.481 25.2627H192.431C191.894 25.2627 191.679 25.4776 191.679 26.0147C191.679 26.5519 191.894 26.7668 192.431 26.7668H194.043V31.7087C194.043 32.0311 194.15 32.2459 194.258 32.3534C194.365 32.5682 194.58 32.5682 194.902 32.5682C195.224 32.5682 195.439 32.4608 195.547 32.3534C195.654 32.2459 195.762 31.9236 195.762 31.7087V26.7668H197.373C197.91 26.7668 198.125 26.5519 198.125 26.0147C198.125 25.4776 198.018 25.2627 197.481 25.2627Z" fill="#F7941D"/>
<path d="M204.894 25.9073C204.464 25.4776 203.819 25.2627 202.96 25.2627H200.489C199.952 25.2627 199.629 25.585 199.629 26.1222V31.7087C199.629 32.0311 199.737 32.2459 199.844 32.3534C199.952 32.5682 200.166 32.5682 200.489 32.5682C200.811 32.5682 201.026 32.4608 201.133 32.3534C201.241 32.2459 201.348 31.9236 201.348 31.7087V29.9898H202.852C203.712 29.9898 204.249 29.7749 204.786 29.3452C205.216 28.9155 205.431 28.3783 205.431 27.6263C205.431 26.8742 205.323 26.337 204.894 25.9073ZM202.745 28.5932H201.456V26.7668H202.745C203.497 26.7668 203.819 27.0891 203.819 27.7337C203.819 28.2709 203.497 28.5932 202.745 28.5932Z" fill="#F7941D"/>
<path d="M157.945 26.337C158.052 26.337 158.267 26.2296 158.375 26.1222L159.127 25.2627C159.342 25.0478 159.341 24.6181 159.019 24.4032C158.804 24.1884 158.375 24.1884 158.16 24.5107L157.515 25.2627C157.3 25.4776 157.3 25.9073 157.623 26.1222C157.623 26.2296 157.837 26.337 157.945 26.337Z" fill="#F7941D"/>
<path d="M93.5918 31.1716H93.1621V26.2296C93.1621 25.585 92.8398 25.2627 92.1952 25.2627H88.6499C88.0053 25.2627 87.683 25.585 87.683 26.2296V27.3039C87.683 29.1303 87.3607 30.4195 86.8235 31.1716H86.3938C85.964 31.1716 85.6417 31.4939 85.6417 31.9236C85.6417 32.3534 85.964 32.6757 86.3938 32.6757H93.4844C93.9141 32.6757 94.2364 32.3534 94.2364 31.9236C94.2364 31.4939 93.9141 31.1716 93.5918 31.1716ZM91.4432 31.1716H88.7573C88.9722 30.7418 89.0796 30.3121 89.2945 29.7749C89.4019 29.1303 89.4019 28.2709 89.4019 27.4114V26.7668H91.3357V31.1716H91.4432Z" fill="#F7941D"/>
<path d="M111.426 31.0641H110.889V26.1222C110.889 25.585 110.566 25.2627 110.029 25.2627C109.492 25.2627 109.17 25.585 109.17 26.1222V31.0641H106.162V26.1222C106.162 25.585 105.839 25.2627 105.302 25.2627C104.765 25.2627 104.443 25.585 104.443 26.1222V31.7087C104.443 31.7087 104.443 31.7087 104.443 31.8162C104.443 32.2459 104.765 32.5682 105.195 32.5682H111.533C111.963 32.5682 112.285 32.2459 112.285 31.8162C112.178 31.3864 111.856 31.0641 111.426 31.0641Z" fill="#F7941D"/>
<path d="M174.49 31.1716H173.953V26.2296C173.953 25.6924 173.63 25.3701 173.093 25.3701C172.556 25.3701 172.234 25.6924 172.234 26.2296V31.1716H169.225V26.2296C169.225 25.6924 168.903 25.3701 168.366 25.3701C167.829 25.3701 167.506 25.6924 167.506 26.2296V31.8162C167.506 31.8162 167.506 31.8162 167.506 31.9236C167.506 32.3534 167.829 32.6757 168.259 32.6757H174.597C175.027 32.6757 175.349 32.3534 175.349 31.9236C175.242 31.4939 174.919 31.1716 174.49 31.1716Z" fill="#F7941D"/>
</svg>
