<svg width="26" height="26" viewBox="0 0 26 26" fill="none" xmlns="http://www.w3.org/2000/svg">
<path d="M13.9175 11.615H10.7321C10.1089 9.1567 7.85828 7.32161 5.1922 7.32161H3.42636C2.66462 7.32161 2.04138 7.94485 2.04138 8.70659V10.4032C2.04138 11.1649 2.66462 11.7882 3.42636 11.7882C4.18809 11.7882 4.81133 11.1649 4.81133 10.4032V10.0916H5.15758C6.7503 10.0916 8.06602 11.4073 8.06602 13C8.06602 14.5927 6.7503 15.9085 5.15758 15.9085H4.81133V15.7353C4.81133 14.9736 4.18809 14.3504 3.42636 14.3504C2.66462 14.3504 2.04138 14.9736 2.04138 15.7353V17.2934C2.04138 18.0552 2.66462 18.6784 3.42636 18.6784H5.1922C7.85828 18.6784 10.1089 16.8433 10.7321 14.385H13.9175C14.6793 14.385 15.0602 13.7617 15.0602 13C15.0948 12.2383 14.7139 11.615 13.9175 11.615Z" fill="#006838"/>
<path d="M23.9586 13C23.9586 16.1508 21.3964 18.713 18.2456 18.713C15.0948 18.713 12.5326 16.1508 12.5326 13C12.5326 9.84919 15.0948 7.28699 18.2456 7.28699C21.3964 7.28699 23.9586 9.84919 23.9586 13ZM15.3371 13C15.3371 14.5927 16.6529 15.9085 18.2456 15.9085C19.8383 15.9085 21.154 14.5927 21.154 13C21.154 11.4073 19.8383 10.0916 18.2456 10.0916C16.6529 10.0916 15.3371 11.4073 15.3371 13Z" fill="#F7941D"/>
</svg>
