<svg width="24" height="24" viewBox="0 0 24 24" fill="none" xmlns="http://www.w3.org/2000/svg">
<g clip-path="url(#clip0_640_4432)">
<mask id="mask0_640_4432" style="mask-type:luminance" maskUnits="userSpaceOnUse" x="2" y="2" width="20" height="20">
<path d="M17.034 21.9907C17.4759 21.9815 17.9209 21.9537 18.3566 21.8765C18.7985 21.7962 19.2126 21.6727 19.6143 21.4657C20.013 21.2681 20.3745 21.0056 20.6867 20.6967C20.9987 20.3879 21.2645 20.0297 21.4623 19.6374C21.6662 19.239 21.7961 18.8345 21.8764 18.3959C21.9567 17.9636 21.9815 17.525 21.9907 17.0865C21.9969 16.8857 21.9969 16.685 22 16.4842V7.51267C22 7.31192 22 7.11118 21.9907 6.91044C21.9815 6.47498 21.9537 6.03336 21.8764 5.60099C21.7961 5.16245 21.6663 4.75478 21.4623 4.35948C21.2614 3.97035 20.9987 3.61211 20.6867 3.30018C20.3745 2.99135 20.0099 2.72885 19.6143 2.53119C19.2095 2.33045 18.7985 2.20074 18.3566 2.12044C17.9209 2.04324 17.4759 2.01544 17.034 2.00618C16.9506 2.00618 16.8671 2.00309 16.7312 2H7.82509L6.97219 2.00927C6.53028 2.01853 6.08529 2.04632 5.64957 2.12353C5.20767 2.20383 4.79357 2.33045 4.39184 2.53428C3.9932 2.73193 3.63164 2.99444 3.31953 3.30328C3.00742 3.61211 2.74166 3.97035 2.54388 4.36257C2.33684 4.76097 2.21014 5.16553 2.12979 5.60408C2.04635 6.03644 2.02163 6.47498 2.00927 6.91353C2.00309 7.11427 2.00309 7.31501 2 7.51575V16.4873C2 16.6881 2.00309 16.8888 2.00927 17.0896C2.01854 17.525 2.04635 17.9667 2.12361 18.399C2.20396 18.8376 2.33374 19.2453 2.5377 19.6405C2.73857 20.0297 3.00123 20.3879 3.31335 20.6998C3.62547 21.0087 3.99011 21.2712 4.38566 21.4688C4.79048 21.6696 5.20148 21.7992 5.64338 21.8796C6.07911 21.9568 6.5241 21.9846 6.96601 21.9938C7.04944 21.9938 7.13288 21.9969 7.26885 22H15.7021L17.0278 21.9938L17.034 21.9907Z" fill="white"/>
</mask>
<g mask="url(#mask0_640_4432)">
<path d="M2 2H22V22H2V2Z" fill="#19AA1E"/>
<path fill-rule="evenodd" clip-rule="evenodd" d="M2 2H22V8.5625L2 5.4375V2Z" fill="#FFB919"/>
<path fill-rule="evenodd" clip-rule="evenodd" d="M2 19.8125L22 16.6875V22H2V19.8125Z" fill="#82D714"/>
<path fill-rule="evenodd" clip-rule="evenodd" d="M2 5.04214L8.98116 6.13294C9.85019 5.58285 10.8841 5.28125 12 5.28125C13.5456 5.28125 14.9338 5.85984 15.9447 6.87586C16.0722 7.00407 16.1926 7.13812 16.3053 7.27735L22 8.16713V8.95785L16.8836 8.15843C17.2637 8.88787 17.4688 9.70059 17.4688 10.53C17.4688 11.6015 17.2291 12.6698 16.7337 13.7425L16.7186 13.775L16.5082 14.2258H16.0106C14.9832 14.2258 14.3017 14.5332 13.8561 15.0778C13.5063 15.5055 13.3039 16.082 13.2358 16.711L13.2338 16.7307L13.2238 16.8312L13.2196 16.8749L13.2115 16.9604C13.1854 17.2413 13.168 17.4794 13.1592 17.6735L22 16.2922V17.0828L2 20.2078V19.4172L10.8507 18.0342L10.8469 17.8567L10.8458 17.8066L10.845 17.7809L10.8436 17.7413C10.8357 17.5261 10.8159 17.2502 10.7843 16.9158L10.7782 16.8523L10.7674 16.7425C10.7039 16.1102 10.5046 15.5263 10.1557 15.0923C9.71477 14.544 9.03953 14.2322 8.02038 14.2259L7.98939 14.2258H7.49185L7.28144 13.775C6.77579 12.6914 6.53125 11.6123 6.53125 10.53C6.53125 9.1689 7.08344 7.85275 8.05533 6.87586C8.08339 6.84766 8.11173 6.8198 8.14037 6.79227L2 5.83285V5.04214Z" fill="white"/>
<path fill-rule="evenodd" clip-rule="evenodd" d="M12 6.0625C14.7922 6.0625 16.6875 8.21164 16.6875 10.53C16.6875 11.4607 16.4844 12.4292 16.0106 13.4446C13.2631 13.4446 12.5849 15.4122 12.4567 16.6502L12.4485 16.7327C12.405 17.1746 12.3799 17.5291 12.373 17.7963L11.6288 17.9127L11.6287 17.8886C11.6258 17.6084 11.5993 17.2154 11.5492 16.7096L11.5471 16.6875C11.4286 15.4522 10.7647 13.4446 7.98939 13.4446C7.51557 12.4292 7.3125 11.4607 7.3125 10.53C7.3125 8.21164 9.20781 6.0625 12 6.0625Z" fill="#0073FA"/>
</g>
</g>
<defs>
<clipPath id="clip0_640_4432">
<rect width="20" height="20" fill="white" transform="translate(2 2)"/>
</clipPath>
</defs>
</svg>
