<svg width="24" height="24" viewBox="0 0 24 24" fill="none" xmlns="http://www.w3.org/2000/svg">
<path fill-rule="evenodd" clip-rule="evenodd" d="M20.9697 18.1963C20.9374 18.5911 20.8655 18.9843 20.6729 19.3623C20.385 19.927 19.9251 20.3856 19.3613 20.6729C18.9833 20.8655 18.5902 20.9374 18.1953 20.9697C17.824 21.0001 17.3737 21 16.8525 21H16.8027H7.19727L7.14619 21C6.62539 21 6.17492 21.0001 5.80372 20.9697C5.40889 20.9374 5.01581 20.8655 4.6377 20.6729C4.0729 20.385 3.61446 19.926 3.32715 19.3623C3.13441 18.984 3.06259 18.5906 3.03028 18.1953C2.99994 17.8241 2.99997 17.3735 3 16.8522L3 16.7998V7.2002L3 7.14804C2.99997 6.62664 2.99994 6.17612 3.03028 5.80469C3.06258 5.40941 3.13437 5.01605 3.32715 4.6377C3.61475 4.07333 4.07334 3.61475 4.6377 3.32715C5.01605 3.13437 5.40942 3.06258 5.80469 3.03027C6.17612 2.99994 6.62664 2.99997 7.14804 3L7.2002 3H16.7998L16.8523 3C17.3736 2.99996 17.8242 2.99994 18.1953 3.03027C18.5905 3.06261 18.9832 3.13448 19.3613 3.32715C19.9246 3.61418 20.3847 4.07225 20.6729 4.6377C20.8655 5.01581 20.9375 5.40888 20.9697 5.80371C21.0001 6.17491 21 6.62539 21 7.14618L21 7.19727V16.8037L21 16.8549C21 17.3755 21.0001 17.8253 20.9697 18.1963ZM16.6406 8.23145C16.2164 7.87791 15.585 7.93519 15.2315 8.35938L10.9316 13.5176L8.70704 11.293C8.31651 10.9024 7.6835 10.9024 7.29297 11.293C6.90245 11.6835 6.90245 12.3165 7.29297 12.707L10.293 15.707C10.4915 15.9056 10.7644 16.0116 11.0449 15.999C11.3256 15.9863 11.5887 15.8564 11.7686 15.6406L16.7686 9.64063C17.1221 9.21638 17.0648 8.58503 16.6406 8.23145Z" fill="#002029"/>
</svg>
